<mxfile host="app.diagrams.net" modified="2024-05-06T11:18:50.504Z" agent="Mozilla/5.0 (Windows NT 10.0; Win64; x64) AppleWebKit/537.36 (KHTML, like Gecko) Chrome/124.0.0.0 Safari/537.36 Edg/124.0.0.0" etag="9gvN5f78kHZhCQX3eY5D" version="24.3.1" type="device">
  <diagram id="C5RBs43oDa-KdzZeNtuy" name="Page-1">
    <mxGraphModel dx="1213" dy="1941" grid="1" gridSize="10" guides="1" tooltips="1" connect="1" arrows="1" fold="1" page="1" pageScale="1" pageWidth="827" pageHeight="1169" math="0" shadow="0">
      <root>
        <mxCell id="WIyWlLk6GJQsqaUBKTNV-0" />
        <mxCell id="WIyWlLk6GJQsqaUBKTNV-1" parent="WIyWlLk6GJQsqaUBKTNV-0" />
        <mxCell id="FFrLH_kSplYUSG-3iGjP-4" style="edgeStyle=orthogonalEdgeStyle;rounded=0;orthogonalLoop=1;jettySize=auto;html=1;exitX=0.25;exitY=0;exitDx=0;exitDy=0;entryX=0.5;entryY=1;entryDx=0;entryDy=0;" edge="1" parent="WIyWlLk6GJQsqaUBKTNV-1" source="FFrLH_kSplYUSG-3iGjP-0" target="FFrLH_kSplYUSG-3iGjP-1">
          <mxGeometry relative="1" as="geometry" />
        </mxCell>
        <mxCell id="FFrLH_kSplYUSG-3iGjP-21" style="edgeStyle=orthogonalEdgeStyle;rounded=0;orthogonalLoop=1;jettySize=auto;html=1;exitX=0.75;exitY=0;exitDx=0;exitDy=0;entryX=0.25;entryY=1;entryDx=0;entryDy=0;" edge="1" parent="WIyWlLk6GJQsqaUBKTNV-1" source="FFrLH_kSplYUSG-3iGjP-0" target="FFrLH_kSplYUSG-3iGjP-3">
          <mxGeometry relative="1" as="geometry" />
        </mxCell>
        <mxCell id="FFrLH_kSplYUSG-3iGjP-0" value="Tauri WebView" style="rounded=0;whiteSpace=wrap;html=1;" vertex="1" parent="WIyWlLk6GJQsqaUBKTNV-1">
          <mxGeometry x="370" y="270" width="120" height="60" as="geometry" />
        </mxCell>
        <mxCell id="FFrLH_kSplYUSG-3iGjP-10" value="" style="edgeStyle=orthogonalEdgeStyle;rounded=0;orthogonalLoop=1;jettySize=auto;html=1;" edge="1" parent="WIyWlLk6GJQsqaUBKTNV-1" source="FFrLH_kSplYUSG-3iGjP-1" target="FFrLH_kSplYUSG-3iGjP-9">
          <mxGeometry relative="1" as="geometry" />
        </mxCell>
        <mxCell id="FFrLH_kSplYUSG-3iGjP-1" value="HTML+CSS" style="rounded=0;whiteSpace=wrap;html=1;" vertex="1" parent="WIyWlLk6GJQsqaUBKTNV-1">
          <mxGeometry x="340" y="130" width="120" height="60" as="geometry" />
        </mxCell>
        <mxCell id="FFrLH_kSplYUSG-3iGjP-12" value="WebSocket" style="edgeStyle=orthogonalEdgeStyle;rounded=0;orthogonalLoop=1;jettySize=auto;html=1;exitX=0.75;exitY=1;exitDx=0;exitDy=0;entryX=0.5;entryY=0;entryDx=0;entryDy=0;" edge="1" parent="WIyWlLk6GJQsqaUBKTNV-1" source="FFrLH_kSplYUSG-3iGjP-3" target="FFrLH_kSplYUSG-3iGjP-13">
          <mxGeometry relative="1" as="geometry">
            <mxPoint x="580" y="360" as="targetPoint" />
          </mxGeometry>
        </mxCell>
        <mxCell id="FFrLH_kSplYUSG-3iGjP-22" style="edgeStyle=orthogonalEdgeStyle;rounded=0;orthogonalLoop=1;jettySize=auto;html=1;exitX=0;exitY=0.5;exitDx=0;exitDy=0;entryX=1;entryY=0.5;entryDx=0;entryDy=0;" edge="1" parent="WIyWlLk6GJQsqaUBKTNV-1" source="FFrLH_kSplYUSG-3iGjP-3" target="FFrLH_kSplYUSG-3iGjP-1">
          <mxGeometry relative="1" as="geometry" />
        </mxCell>
        <mxCell id="FFrLH_kSplYUSG-3iGjP-3" value="JavaScript" style="rounded=0;whiteSpace=wrap;html=1;" vertex="1" parent="WIyWlLk6GJQsqaUBKTNV-1">
          <mxGeometry x="490" y="130" width="120" height="60" as="geometry" />
        </mxCell>
        <mxCell id="FFrLH_kSplYUSG-3iGjP-8" style="edgeStyle=orthogonalEdgeStyle;rounded=0;orthogonalLoop=1;jettySize=auto;html=1;" edge="1" parent="WIyWlLk6GJQsqaUBKTNV-1" source="FFrLH_kSplYUSG-3iGjP-6" target="FFrLH_kSplYUSG-3iGjP-3">
          <mxGeometry relative="1" as="geometry" />
        </mxCell>
        <mxCell id="FFrLH_kSplYUSG-3iGjP-6" value="AMAP API" style="ellipse;shape=cloud;whiteSpace=wrap;html=1;" vertex="1" parent="WIyWlLk6GJQsqaUBKTNV-1">
          <mxGeometry x="650" y="120" width="120" height="80" as="geometry" />
        </mxCell>
        <mxCell id="FFrLH_kSplYUSG-3iGjP-9" value="Window" style="ellipse;whiteSpace=wrap;html=1;rounded=0;" vertex="1" parent="WIyWlLk6GJQsqaUBKTNV-1">
          <mxGeometry x="360" y="-20" width="80" height="80" as="geometry" />
        </mxCell>
        <mxCell id="FFrLH_kSplYUSG-3iGjP-16" value="" style="edgeStyle=orthogonalEdgeStyle;rounded=0;orthogonalLoop=1;jettySize=auto;html=1;entryX=0.5;entryY=0;entryDx=0;entryDy=0;" edge="1" parent="WIyWlLk6GJQsqaUBKTNV-1" source="FFrLH_kSplYUSG-3iGjP-13" target="FFrLH_kSplYUSG-3iGjP-20">
          <mxGeometry relative="1" as="geometry">
            <mxPoint x="580" y="400" as="targetPoint" />
          </mxGeometry>
        </mxCell>
        <mxCell id="FFrLH_kSplYUSG-3iGjP-18" value="MAVLink" style="edgeLabel;html=1;align=center;verticalAlign=middle;resizable=0;points=[];" vertex="1" connectable="0" parent="FFrLH_kSplYUSG-3iGjP-16">
          <mxGeometry x="-0.0667" y="-1" relative="1" as="geometry">
            <mxPoint as="offset" />
          </mxGeometry>
        </mxCell>
        <mxCell id="FFrLH_kSplYUSG-3iGjP-13" value="Python" style="rounded=0;whiteSpace=wrap;html=1;" vertex="1" parent="WIyWlLk6GJQsqaUBKTNV-1">
          <mxGeometry x="520" y="270" width="120" height="60" as="geometry" />
        </mxCell>
        <mxCell id="FFrLH_kSplYUSG-3iGjP-20" value="Copter" style="ellipse;whiteSpace=wrap;html=1;" vertex="1" parent="WIyWlLk6GJQsqaUBKTNV-1">
          <mxGeometry x="520" y="390" width="120" height="80" as="geometry" />
        </mxCell>
      </root>
    </mxGraphModel>
  </diagram>
</mxfile>
